<svg version="1.1" id="Layer_1" xmlns="http://www.w3.org/2000/svg" xmlns:xlink="http://www.w3.org/1999/xlink" x="0px" y="0px"
	 width="100%" viewBox="0 0 1024 1024" enable-background="new 0 0 1024 1024" xml:space="preserve">
<path fill="#000000" opacity="1.000000" stroke="none" 
	d="
M105.650848,490.999878 
	C105.650970,425.337830 105.716064,360.175629 105.542526,295.014069 
	C105.526733,289.086243 107.648453,285.565369 112.600266,282.513214 
	C165.076309,250.168533 218.501602,219.443466 271.841156,188.562836 
	C330.080109,154.845688 388.065491,120.690720 446.214478,86.817741 
	C466.077637,75.247047 486.159393,64.051407 506.011688,52.462429 
	C511.037506,49.528549 515.292786,49.507015 520.389343,52.423161 
	C575.478271,83.943825 630.949890,114.791733 685.735840,146.846954 
	C729.157776,172.253159 772.713806,197.431320 816.288147,222.575760 
	C848.325439,241.062775 879.720520,260.599274 911.223633,279.965790 
	C917.880798,284.058319 920.510864,289.091278 920.498474,297.108856 
	C920.273865,441.931549 920.292297,586.754761 920.475281,731.577515 
	C920.483887,738.368835 917.906250,742.493286 912.463684,745.768738 
	C886.203796,761.572388 859.979492,777.435486 833.778076,793.335938 
	C789.910461,819.957275 744.821045,844.485474 700.831665,870.890564 
	C659.695374,895.583008 617.753540,918.876648 576.387085,943.165527 
	C558.720764,953.538452 540.991211,963.813232 523.543762,974.544495 
	C516.725342,978.738220 511.191193,978.374817 504.272766,974.335388 
	C454.500000,945.274841 404.429565,916.724792 354.586334,887.784119 
	C305.612640,859.348389 256.938141,830.395203 207.859070,802.143982 
	C175.800095,783.690063 144.377518,764.211670 112.783501,745.001526 
	C107.736282,741.932678 105.523582,738.114380 105.536751,731.983215 
	C105.709030,651.822388 105.651138,571.661072 105.650848,490.999878 
M305.822083,819.611328 
	C344.071869,841.983826 382.319275,864.360352 420.572266,886.727478 
	C449.475922,903.627747 478.462036,920.389465 507.221558,937.531433 
	C512.134338,940.459595 515.758606,940.757690 520.789368,937.801697 
	C584.991028,900.077881 649.295288,862.528503 713.621582,825.017212 
	C770.031799,792.121887 826.477905,759.288086 882.997437,726.581299 
	C887.115601,724.198242 888.764954,721.600830 888.760559,716.770630 
	C888.636658,581.446228 888.633789,446.121643 888.781372,310.797272 
	C888.786804,305.782288 887.223938,302.936523 882.937439,300.489471 
	C864.712524,290.085083 846.690369,279.326385 828.538025,268.793793 
	C762.406799,230.422256 696.283691,192.036362 630.095764,153.762848 
	C592.748779,132.166779 554.536926,112.071922 517.932190,89.189964 
	C515.001770,87.358124 512.608459,87.420578 509.653229,89.130051 
	C488.749298,101.222168 467.708649,113.078232 446.825287,125.205414 
	C396.988831,154.145966 347.245911,183.247589 297.407501,212.184769 
	C246.272583,241.874680 195.110687,271.518951 143.823090,300.943481 
	C139.324829,303.524200 138.136932,306.406464 138.139664,311.233002 
	C138.214371,443.057281 138.347717,574.882446 137.806229,706.704712 
	C137.756393,718.833801 140.389709,726.757751 152.115189,730.600281 
	C152.890701,730.854492 153.571640,731.400574 154.292404,731.818115 
	C204.593094,760.956421 254.893326,790.095581 305.822083,819.611328 
z"/>
<path fill="#000000" opacity="1.000000" stroke="none" 
	d="
M629.885437,851.955078 
	C592.681213,873.520508 555.755554,894.838074 518.940002,916.344055 
	C514.988037,918.652649 511.880554,918.087646 508.313202,915.986023 
	C483.486725,901.359741 458.647949,886.753784 433.757721,872.236267 
	C373.474457,837.075378 313.163086,801.962830 252.858627,766.838379 
	C222.350449,749.068787 191.848663,731.288147 161.298553,713.590881 
	C157.558426,711.424316 155.532120,709.002563 155.536972,704.199951 
	C155.666138,576.557007 155.639709,448.913879 155.532639,321.270844 
	C155.529800,317.877777 156.970169,315.978821 159.538879,314.455505 
	C172.573181,306.725769 185.564941,298.922455 198.668137,291.311066 
	C296.037109,234.750961 393.427521,178.227737 490.817596,121.703949 
	C496.146881,118.610916 501.626831,115.767578 506.864166,112.529068 
	C511.201233,109.847206 515.200928,110.036873 519.523987,112.505966 
	C576.943542,145.301071 634.409485,178.013199 691.411926,211.534454 
	C744.392273,242.690430 797.531982,273.574463 850.965759,303.949646 
	C855.886902,306.747131 860.559753,309.992188 865.541748,312.668701 
	C869.685242,314.894745 871.310852,317.837708 871.301392,322.658051 
	C871.164246,392.478149 871.203491,462.298645 871.209900,532.119019 
	C871.215149,589.441772 871.190796,646.764648 871.323792,704.087097 
	C871.334656,708.770630 869.954041,711.867310 865.824707,714.277222 
	C827.707703,736.522827 789.706543,758.966919 751.591309,781.215576 
	C711.171814,804.809143 670.664734,828.252747 629.885437,851.955078 
M766.847046,270.698364 
	C683.833679,222.161118 600.840393,173.588867 516.112671,126.105316 
	C513.143188,140.991516 514.863586,154.933289 512.903015,169.230240 
	C514.149170,168.094055 513.453918,166.943497 514.931885,166.579422 
	C517.069153,186.227615 519.325684,205.806290 521.294067,225.413879 
	C523.068481,243.088257 525.268738,260.717590 526.659363,278.437683 
	C527.017944,283.007660 526.529846,287.805145 528.331238,292.246002 
	C529.989624,296.334167 532.719910,297.238708 536.005554,294.428253 
	C538.393005,292.386047 540.590942,290.043304 542.525513,287.563202 
	C558.951782,266.505554 578.599976,248.816315 599.900330,232.914429 
	C606.552612,227.948105 613.326172,222.836227 622.695618,221.154099 
	C620.132874,225.260056 617.519897,228.211685 614.461487,230.778366 
	C583.447754,256.805328 558.918274,288.311920 538.806885,323.109772 
	C527.099548,343.366394 523.105652,365.643799 529.377014,389.001526 
	C532.315125,399.944458 538.166870,408.040985 548.751404,412.882355 
	C559.341736,417.726379 569.921204,422.818390 578.591309,430.881134 
	C595.728333,446.817719 622.749268,442.381531 637.013184,433.021637 
	C656.704285,420.100433 669.784790,401.068634 674.495972,377.730347 
	C680.978210,345.618835 688.083008,313.710052 697.925232,282.448578 
	C698.693848,280.007141 699.635986,277.615417 702.111877,275.257385 
	C702.697876,282.366669 702.170349,288.572876 701.429871,294.838745 
	C699.637634,310.005768 697.912781,325.176758 695.917175,340.322113 
	C694.551819,350.684265 694.181946,361.177277 693.354492,371.610840 
	C693.165649,373.991791 693.947571,375.963409 696.070679,377.073853 
	C698.118103,378.144714 699.466309,376.310883 700.973938,375.424438 
	C702.549316,374.498138 703.963257,373.294769 705.547119,372.385651 
	C730.683655,357.957672 755.820984,343.530914 781.001892,329.180756 
	C784.632629,327.111664 788.458923,325.342224 793.163513,324.781647 
	C792.758606,325.840088 792.712830,326.416718 792.400818,326.700745 
	C790.555786,328.379730 788.735107,330.104706 786.749512,331.607086 
	C765.636353,347.582611 743.392822,362.077393 723.651672,379.849915 
	C714.853455,387.770782 705.878296,395.542358 700.088318,406.136566 
	C697.222961,411.379364 698.131470,416.080750 702.565552,420.043060 
	C705.364014,422.543854 708.636108,424.042023 712.357117,424.666138 
	C722.526062,426.371674 732.600708,424.589508 742.567261,423.297394 
	C765.742310,420.292786 787.427917,412.463287 808.015442,401.446777 
	C814.384094,398.038818 820.667725,394.382874 828.119385,391.574249 
	C827.391113,395.286407 825.135437,396.866516 822.916992,398.536713 
	C812.224609,406.586639 800.564941,413.038574 788.750427,419.224121 
	C773.956360,426.969543 758.064697,432.140198 742.768250,438.707336 
	C733.588013,442.648651 733.200928,445.598419 740.735779,451.853455 
	C740.864014,451.959869 740.998474,452.058624 741.128357,452.163025 
	C760.975281,468.115631 782.169373,481.782410 806.175049,490.740967 
	C808.137085,491.473145 810.763367,491.662262 811.751221,494.902557 
	C799.660767,493.214050 788.119873,491.438538 777.068848,487.028442 
	C760.551086,480.436737 745.604553,471.067291 730.798645,461.443176 
	C712.910950,449.815887 694.158691,445.436493 672.482910,449.101288 
	C630.534119,456.193695 604.600159,502.306091 624.962891,542.767212 
	C638.399353,569.465637 672.754211,585.226990 703.823364,578.110474 
	C718.127563,574.834167 730.469116,567.834961 742.424561,559.888550 
	C761.575623,547.159485 781.732178,536.742798 804.507141,532.217529 
	C807.259033,531.670837 810.048950,530.325500 813.545227,531.444702 
	C811.431213,533.911987 808.858826,534.695190 806.535645,535.794434 
	C783.564392,546.663574 761.664490,559.271606 742.072693,575.596619 
	C739.237732,577.958801 734.803650,579.756836 735.631958,584.330200 
	C736.495178,589.096313 741.221313,590.024109 745.059021,591.566956 
	C745.212524,591.628662 745.383423,591.645874 745.540466,591.700256 
	C773.230591,601.278564 799.419617,613.860046 823.439636,630.750305 
	C825.290039,632.051514 827.976135,632.913452 827.727661,636.062927 
	C825.065552,637.017700 823.358643,635.338989 821.482239,634.457275 
	C807.320496,627.802490 793.545776,620.313721 778.789001,614.947266 
	C758.422852,607.541016 737.474243,603.594788 715.764404,604.371277 
	C708.790222,604.620789 702.547058,606.812439 699.423035,613.812561 
	C696.520264,620.316589 700.531860,624.981506 704.243103,629.488037 
	C710.946655,637.628113 719.055359,644.329041 726.986572,651.208618 
	C745.906372,667.619751 767.070129,681.027283 786.964172,696.132751 
	C788.870667,697.580383 791.175171,698.755981 791.602417,701.805359 
	C788.328003,702.301697 785.891968,700.787109 783.452271,699.481018 
	C755.690186,684.616882 728.199707,669.278809 701.593811,652.403564 
	C699.774780,651.249817 697.956421,649.644775 695.656433,650.812317 
	C693.149170,652.085022 693.205688,654.632751 693.379150,656.968201 
	C694.092102,666.568665 694.649963,676.190186 695.727234,685.751831 
	C697.751953,703.723572 700.281860,721.639832 702.168884,739.624573 
	C702.599121,743.725037 703.805664,748.153259 701.628601,752.596497 
	C698.765320,750.324463 698.070496,747.130188 697.306091,744.198792 
	C692.861511,727.153564 687.368225,710.394287 683.580078,693.168457 
	C679.589355,675.021362 678.392273,656.179626 671.541138,638.760925 
	C661.215271,612.508301 645.435852,591.624084 615.450134,585.993408 
	C603.119995,583.678223 591.522888,585.838928 581.968506,593.628174 
	C570.611206,602.887329 558.146973,610.057739 545.246277,616.682251 
	C536.839478,620.999207 531.934692,628.015137 529.413574,636.914734 
	C523.169373,658.956848 526.455200,680.316772 537.590332,699.530701 
	C558.879272,736.265564 583.801575,770.418640 616.135132,798.537537 
	C617.947693,800.113892 619.834595,801.677429 620.789673,804.635925 
	C616.242554,803.986938 612.721008,802.292786 609.460449,799.999695 
	C583.394653,781.667175 560.399475,760.080627 540.630981,735.066467 
	C539.090515,733.117188 537.442932,731.172668 535.526428,729.619019 
	C532.666199,727.300354 530.102783,728.352417 528.554871,731.341492 
	C527.748047,732.899536 527.536316,734.841736 527.364746,736.639832 
	C526.497070,745.737488 525.812073,754.852966 524.910706,763.947021 
	C523.453430,778.649841 521.797852,793.333069 520.372253,808.038757 
	C518.737122,824.906433 516.913147,841.768494 515.888733,858.676453 
	C515.480896,865.407532 512.341858,871.780640 513.481750,878.550659 
	C514.516235,884.694214 514.168945,890.840820 514.376282,896.990479 
	C514.434814,898.724731 513.709229,900.680359 515.334106,902.133911 
	C517.194519,902.266357 518.552551,901.188416 519.964661,900.374939 
	C540.173096,888.731934 560.396057,877.113708 580.552795,865.381714 
	C648.504333,825.831360 716.432373,786.240417 784.366089,746.659424 
	C807.678162,733.076721 830.953247,719.429993 854.318298,705.939087 
	C857.658936,704.010193 858.730225,701.577759 858.716431,697.828247 
	C858.599976,666.162537 858.652588,634.496277 858.652649,602.830139 
	C858.652832,511.831757 858.623474,420.833313 858.736694,329.835052 
	C858.742371,325.277405 857.543396,322.319580 853.290649,320.310211 
	C848.940430,318.254730 844.888977,315.567657 840.703674,313.162384 
	C816.293640,299.134003 791.882751,285.107147 766.847046,270.698364 
M296.451447,459.883331 
	C320.783875,445.804962 345.899261,442.911591 371.875275,454.977020 
	C388.797211,462.837006 402.279114,474.082520 407.750336,492.910309 
	C410.058624,500.853729 410.236572,508.932343 410.410400,517.110962 
	C410.811157,535.965698 404.718964,551.718994 389.496674,563.426208 
	C366.824829,580.862854 342.110229,588.669250 313.830078,579.285828 
	C301.317108,575.133972 290.644043,567.668579 280.080994,560.083862 
	C267.005188,550.694946 253.002335,543.154785 237.681534,538.128174 
	C236.024506,537.584534 234.372131,536.796814 232.734955,538.106445 
	C233.227051,539.703491 234.477615,539.995544 235.476440,540.460022 
	C252.716690,548.476685 267.723694,559.789551 282.026154,572.103210 
	C291.679718,580.414307 291.183044,584.263611 279.386963,589.116943 
	C256.318298,598.608398 234.872314,610.989075 214.187561,624.791016 
	C212.193359,626.121643 209.683472,626.851013 208.219543,629.221008 
	C211.688263,629.684753 211.692642,629.695190 214.070831,628.696289 
	C235.751038,619.589661 258.111267,612.544434 280.882843,606.776428 
	C293.429474,603.598328 306.129791,602.032349 318.873474,605.382385 
	C329.447174,608.161987 331.444397,613.167053 326.283691,622.670715 
	C321.940826,630.668396 315.811005,637.223816 309.515656,643.690979 
	C291.960419,661.725281 271.406982,675.921753 250.760193,690.019775 
	C249.405197,690.945007 247.177734,691.360840 247.790543,694.758240 
	C254.124756,691.754028 260.311798,689.089355 266.249725,685.953064 
	C284.535156,676.295166 301.430847,664.310425 319.337738,654.017517 
	C322.812042,652.020447 326.728516,648.184753 330.596161,650.561829 
	C334.056793,652.688782 333.113586,657.773132 333.070831,661.700134 
	C332.824249,684.358459 329.589844,706.731323 326.730164,729.151917 
	C326.161469,733.610840 324.581757,738.305786 325.981750,743.074036 
	C328.715302,742.382935 328.841919,740.442322 329.237793,738.963257 
	C331.470093,730.622803 333.509491,722.230835 335.668640,713.870422 
	C341.939514,689.589417 344.977936,664.554932 352.623688,640.600891 
	C361.405884,613.086365 379.293671,594.480957 407.230896,586.353333 
	C420.310974,582.548035 432.697937,583.976807 444.111267,592.571533 
	C453.957031,599.985779 464.657379,606.195312 476.151703,610.860229 
	C483.578796,613.874512 488.904175,618.941101 492.509796,626.182800 
	C496.612152,634.422180 498.469849,643.118774 498.724091,652.164978 
	C499.170929,668.063843 498.726654,684.005066 490.584930,698.256531 
	C476.435028,723.024841 460.852356,746.849426 441.790771,768.226196 
	C430.897491,780.442505 418.888763,791.404785 404.845581,800.876099 
	C407.326172,801.378662 408.813904,800.497864 410.167847,799.716003 
	C418.095947,795.137817 426.106171,790.658081 433.415558,785.117065 
	C451.350677,771.521179 465.150085,753.792725 480.570496,737.682739 
	C483.625824,734.490723 486.575348,729.151672 491.020203,730.228577 
	C496.119568,731.464050 497.902740,737.266541 499.393188,742.346191 
	C503.743896,757.174011 503.794128,772.538757 505.307648,787.722961 
	C507.052338,805.226929 508.803009,822.730347 510.598511,840.229126 
	C510.997650,844.119141 511.594910,847.988892 512.100952,851.867981 
	C513.494385,848.143005 513.665710,844.502014 513.664856,840.829590 
	C513.645630,760.663879 513.649780,680.498169 513.648621,600.332458 
	C513.648621,598.999146 513.578796,597.662659 513.648499,596.333252 
	C513.823486,592.998169 512.271667,591.616272 508.948212,591.319214 
	C465.503052,587.435791 435.554199,551.731567 434.350952,517.416504 
	C433.796234,501.596619 435.912018,486.684967 444.559784,473.531525 
	C459.152130,451.336090 480.727539,439.820251 506.569458,435.783875 
	C513.306335,434.731598 513.642944,434.666016 513.643616,427.734833 
	C513.651428,347.735901 513.647644,267.737000 513.647034,187.738068 
	C513.646973,183.364044 513.647034,178.990036 513.647034,174.616013 
	C511.703339,182.775925 510.602325,190.933258 509.725555,199.114624 
	C507.815277,216.939758 505.234436,234.692245 504.264771,252.620392 
	C503.580627,265.269592 501.827301,277.781921 497.191193,289.685516 
	C494.654480,296.198669 491.661072,296.907104 486.417816,292.297028 
	C480.157318,286.792542 474.050873,281.087006 468.729523,274.662018 
	C455.022247,258.111877 439.035400,244.085510 421.514954,231.774994 
	C417.008453,228.608597 412.631622,224.950424 406.860443,223.686020 
	C406.733765,225.532547 407.891327,226.050064 408.774109,226.752365 
	C442.075073,253.244614 468.749634,285.214020 488.721191,322.832916 
	C497.369232,339.122589 499.521179,356.597351 499.034302,374.574738 
	C498.878143,380.339233 498.089020,386.162811 496.210205,391.748932 
	C492.347626,403.233185 486.385315,412.545837 474.311615,417.304535 
	C462.019684,422.149170 451.097351,429.630005 440.501892,437.490082 
	C435.464935,441.226715 430.035248,443.810242 423.663025,444.430328 
	C409.605835,445.798279 397.314636,441.023132 386.258911,433.120239 
	C366.490601,418.989288 355.562866,398.924225 349.726624,375.828308 
	C347.082703,365.365356 344.970337,354.768372 342.600586,344.235809 
	C337.898254,323.336121 334.435791,302.157898 328.567841,281.523682 
	C327.945740,279.336029 328.069397,276.572998 325.271851,274.937012 
	C324.939362,275.862305 324.496094,276.470154 324.553894,277.025909 
	C326.339722,294.198212 328.226349,311.360107 329.985565,328.535065 
	C331.391083,342.256866 333.364288,355.945221 333.274841,369.776245 
	C333.228668,376.913269 329.464844,379.074097 323.185638,375.903046 
	C322.295898,375.453735 321.467621,374.882294 320.612885,374.364197 
	C299.955872,361.842865 279.302002,349.313263 257.406494,339.011322 
	C255.522156,338.124786 253.610825,336.499054 251.090210,337.675659 
	C251.899063,339.570801 253.282059,340.271362 254.509506,341.069427 
	C273.288025,353.278839 290.434692,367.547394 306.915436,382.645172 
	C314.318970,389.427429 320.957428,396.921051 326.039642,405.614197 
	C330.926575,413.973419 328.879608,419.245667 319.717987,422.654663 
	C310.905121,425.933960 301.691711,426.354187 292.619110,424.828827 
	C270.909271,421.178894 249.869766,415.024292 229.441086,406.741577 
	C224.181396,404.609100 218.922226,402.104218 212.167343,401.370758 
	C214.891983,405.990051 218.755356,407.641113 222.141617,409.772827 
	C241.320404,421.846100 260.732697,433.429779 281.932068,441.816223 
	C290.528900,445.217102 290.837463,449.266510 284.208099,455.834595 
	C268.712463,471.186890 250.546066,482.383026 230.369431,490.474976 
	C228.457489,491.241760 225.991974,491.435486 224.635651,494.555939 
	C238.148849,491.172546 250.275284,486.409241 262.136871,480.793121 
	C274.107239,475.125488 284.301575,466.618469 296.451447,459.883331 
M559.546509,494.233429 
	C566.659729,515.380432 564.273804,534.517822 547.521667,550.549438 
	C539.883728,557.858887 530.636841,561.585327 520.161072,562.345520 
	C513.534851,562.826477 513.365417,562.953918 513.353210,569.785522 
	C513.344238,574.780823 513.586853,579.790588 513.280823,584.767029 
	C513.026611,588.900452 514.739563,590.003418 518.549622,589.718567 
	C538.765869,588.207458 556.428406,580.924377 570.353760,566.004639 
	C587.427979,547.711060 592.280029,525.449463 589.277466,501.303741 
	C587.706604,488.671234 583.540833,476.755066 575.523621,466.453857 
	C560.830688,447.574982 540.632446,439.597229 517.718567,436.782288 
	C514.408325,436.375641 514.137207,438.403809 514.110474,440.715332 
	C514.041199,446.708435 514.314392,452.719391 513.937927,458.690857 
	C513.618469,463.757660 515.903198,465.245270 520.546997,465.703369 
	C538.735535,467.497467 552.095459,476.272858 559.546509,494.233429 
M513.649414,480.365784 
	C513.374878,476.286346 514.249634,472.129364 513.080505,468.134979 
	C489.183929,467.451813 467.676331,489.329041 467.184235,513.564026 
	C466.650879,539.830994 489.344849,556.450195 508.392181,559.632019 
	C512.137390,560.257568 514.066956,559.149048 513.706116,554.918335 
	C513.410156,551.448303 513.431763,547.916443 513.702454,544.442322 
	C513.995239,540.685364 512.300903,539.229187 508.837891,538.312683 
	C496.588654,535.070740 488.992432,525.995483 488.677948,514.722229 
	C488.376923,503.931458 496.137482,493.179230 507.565704,489.967041 
	C512.631958,488.543030 514.507629,486.230377 513.649414,480.365784 
M526.594788,533.141357 
	C536.437500,524.311584 538.463135,510.933838 531.513306,499.776215 
	C528.605408,495.107758 524.489380,491.810089 519.078491,490.453735 
	C515.907227,489.658813 513.923950,490.674530 513.980103,494.393707 
	C514.042664,498.537079 514.080994,502.497467 516.242432,506.399658 
	C518.757446,510.940277 519.038452,516.160400 516.266968,520.696533 
	C513.611572,525.042480 514.182922,529.599976 514.024414,534.177246 
	C513.911499,537.438965 515.888977,538.419861 518.540894,537.452148 
	C521.155457,536.498047 523.528992,534.883728 526.594788,533.141357 
z"/>
</svg>